<?xml version="1.0" encoding="UTF-8" standalone="no"?>
<!-- Created with Inkscape (http://www.inkscape.org/) -->

<svg
   xmlns:dc="http://purl.org/dc/elements/1.1/"
   xmlns:cc="http://creativecommons.org/ns#"
   xmlns:rdf="http://www.w3.org/1999/02/22-rdf-syntax-ns#"
   xmlns:svg="http://www.w3.org/2000/svg"
   xmlns="http://www.w3.org/2000/svg"
   xmlns:sodipodi="http://sodipodi.sourceforge.net/DTD/sodipodi-0.dtd"
   xmlns:inkscape="http://www.inkscape.org/namespaces/inkscape"
   width="65.711441mm"
   height="65.711441mm"
   viewBox="0 0 65.711441 65.711441"
   version="1.1"
   id="svg8"
   inkscape:version="0.92.0 r15299"
   sodipodi:docname="logo.svg">
  <defs
     id="defs2" />
  <sodipodi:namedview
     id="base"
     pagecolor="#ffffff"
     bordercolor="#666666"
     borderopacity="1.0"
     inkscape:pageopacity="0.0"
     inkscape:pageshadow="2"
     inkscape:zoom="1.737037"
     inkscape:cx="-65.203078"
     inkscape:cy="167.39305"
     inkscape:document-units="mm"
     inkscape:current-layer="layer1"
     showgrid="false"
     fit-margin-top="0"
     fit-margin-left="0"
     fit-margin-right="0"
     fit-margin-bottom="0"
     inkscape:window-width="1920"
     inkscape:window-height="1001"
     inkscape:window-x="-9"
     inkscape:window-y="-9"
     inkscape:window-maximized="1" />
  <metadata
     id="metadata5">
    <rdf:RDF>
      <cc:Work
         rdf:about="">
        <dc:format>image/svg+xml</dc:format>
        <dc:type
           rdf:resource="http://purl.org/dc/dcmitype/StillImage" />
        <dc:title />
      </cc:Work>
    </rdf:RDF>
  </metadata>
  <g
     inkscape:label="Capa 1"
     inkscape:groupmode="layer"
     id="layer1"
     transform="translate(-22.329025,-44.162317)">
    <path
       id="path838"
       d="M 55.184746,44.162317 A 32.855719,32.855719 0 0 0 22.329025,77.018038 32.855719,32.855719 0 0 0 55.184746,109.87376 32.855719,32.855719 0 0 0 88.040467,77.018038 32.855719,32.855719 0 0 0 55.184746,44.162317 Z"
       style="fill:#0a1c28;fill-opacity:1;stroke:none;stroke-width:0.32907462;stroke-miterlimit:4;stroke-dasharray:none;stroke-opacity:1"
       inkscape:connector-curvature="0" />
    <path
       style="fill:#0a1c28;fill-opacity:1;stroke:#ffffff;stroke-width:14.98582649;stroke-miterlimit:4;stroke-dasharray:none;stroke-opacity:1"
       d="m 208.57227,191.0918 a 99.999994,99.999994 0 0 0 -100,100 99.999994,99.999994 0 0 0 100,100 99.999994,99.999994 0 0 0 100,-100 99.999994,99.999994 0 0 0 -100,-100 z"
       transform="scale(0.26458333)"
       id="path10"
       inkscape:connector-curvature="0" />
    <path
       style="fill:#0a1c28;fill-opacity:1;stroke:#ffffff;stroke-width:4.2200489;stroke-linecap:butt;stroke-linejoin:miter;stroke-miterlimit:4;stroke-dasharray:none;stroke-opacity:1"
       d="m 67.51194,45.955572 -28.600078,0.271403 -12.42275,34.468155 9.491332,0.271403 -8.760581,27.411687 33.005535,-40.031917 -13.762456,0.271402 4.857194,-10.844371 9.752268,-0.258217 z"
       id="path4496"
       inkscape:connector-curvature="0"
       sodipodi:nodetypes="cccccccccc" />
  </g>
</svg>
